<svg width="22" height="20" viewBox="0 0 27 20" fill="none" xmlns="http://www.w3.org/2000/svg">
<path d="M23.3333 0H3.33333C2.44957 0.000902401 1.60227 0.336419 0.977355 0.93293C0.352439 1.52944 0.000945372 2.33822 0 3.18182V16.8182C0.000945372 17.6618 0.352439 18.4706 0.977355 19.0671C1.60227 19.6636 2.44957 19.9991 3.33333 20H23.3333C24.2171 19.9991 25.0644 19.6636 25.6893 19.0671C26.3142 18.4706 26.6657 17.6618 26.6667 16.8182V3.18182C26.6657 2.33822 26.3142 1.52944 25.6893 0.93293C25.0644 0.336419 24.2171 0.000902401 23.3333 0ZM22.4893 5.26307L13.9179 11.6267C13.7507 11.7507 13.545 11.8181 13.3333 11.8181C13.1216 11.8181 12.916 11.7507 12.7488 11.6267L4.17738 5.26307C4.07667 5.19047 3.99209 5.0995 3.92853 4.99543C3.86498 4.89136 3.82373 4.77627 3.80717 4.65685C3.79062 4.53743 3.79909 4.41607 3.8321 4.2998C3.86511 4.18353 3.922 4.07469 3.99946 3.97959C4.07692 3.88449 4.17341 3.80504 4.28332 3.74585C4.39323 3.68665 4.51437 3.6489 4.63969 3.63478C4.76502 3.62066 4.89204 3.63045 5.01336 3.6636C5.13469 3.69674 5.2479 3.75257 5.34643 3.82784L13.3333 9.75739L21.3202 3.82784C21.52 3.68388 21.771 3.62073 22.0191 3.65207C22.2672 3.68341 22.4924 3.8067 22.646 3.9953C22.7997 4.18389 22.8693 4.42262 22.84 4.65986C22.8107 4.89711 22.6847 5.1138 22.4893 5.26307Z" fill="#e9a508"/>
</svg>
